<svg xmlns="http://www.w3.org/2000/svg" xmlns:xlink="http://www.w3.org/1999/xlink" version="1.1" x="0px" y="0px" viewBox="0 0 160 200" style="enable-background:new 0 0 160 160;" xml:space="preserve"><g><path d="M31.581,64.984c1.142-1.263,2.514-2.296,4.061-3.041L23.576,47.424l25.251,4.329c0.809,0.14,1.638-0.124,2.22-0.706   c0.582-0.581,0.845-1.409,0.706-2.22l-4.329-25.251l19.704,16.375c0.632,0.527,1.482,0.712,2.275,0.499   c0.794-0.213,1.436-0.798,1.721-1.57L80,14.847l8.877,24.033c0.284,0.772,0.926,1.356,1.72,1.57   c0.797,0.212,1.643,0.027,2.275-0.499l12.143-10.092c1.612-5.299,5.188-7.033,7.314-7.595c0.831-0.218,1.678-0.329,2.518-0.329   h0.001c1.089,0,2.105,0.192,3.062,0.512l0.819-4.777c0.179-1.046-0.312-2.092-1.23-2.622c-0.917-0.53-2.071-0.434-2.886,0.245   l-22.225,18.47L82.376,6.656C82.009,5.661,81.061,5,80,5s-2.009,0.661-2.377,1.656L67.611,33.764l-22.225-18.47   c-0.815-0.677-1.967-0.776-2.886-0.245c-0.918,0.531-1.41,1.577-1.23,2.622l4.882,28.482L17.67,41.27   c-1.048-0.181-2.092,0.311-2.622,1.23c-0.531,0.918-0.433,2.071,0.245,2.886L31.581,64.984z"/><path d="M153.344,77.623l-12.748-4.709c0.404,1.986,0.768,3.928,1.082,5.802L145.153,80l-3.095,1.143   c0.27,1.799,0.489,3.519,0.661,5.158l10.626-3.925C154.339,82.009,155,81.061,155,80S154.339,77.991,153.344,77.623z"/><path d="M136.424,47.424l-1.95,2.347c0.612,1.87,1.21,3.796,1.79,5.774l8.442-10.159c0.678-0.816,0.776-1.968,0.245-2.886   c-0.531-0.919-1.579-1.412-2.623-1.23l-10.222,1.752c0.586,1.555,1.167,3.162,1.738,4.844L136.424,47.424z"/><path d="M138.235,106.826c-0.921,0.657-2,1.179-3.276,1.516l-0.046,0.012l-0.047,0.011c-0.588,0.143-1.161,0.218-1.724,0.261   l3.283,3.95l-25.251-4.329c-0.814-0.141-1.638,0.124-2.22,0.706c-0.582,0.581-0.845,1.409-0.706,2.22l4.329,25.251l-18.402-15.293   c0.269,1.613,0.266,3.276-0.063,4.919c-0.09,0.453-0.207,0.897-0.341,1.334l20.843,17.322c0.816,0.679,1.97,0.776,2.886,0.245   c0.918-0.531,1.409-1.577,1.23-2.623l-4.882-28.481l28.481,4.882c1.043,0.178,2.092-0.311,2.623-1.23   c0.531-0.918,0.433-2.071-0.245-2.886L138.235,106.826z"/><path d="M82.641,138.004L80,145.153l-1.918-5.194c-0.451,0.073-0.906,0.122-1.365,0.122c-1.601,0-3.125-0.44-4.45-1.24   l5.357,14.503C77.991,154.339,78.939,155,80,155s2.009-0.661,2.376-1.656l7.249-19.627c-0.658,0.567-1.365,1.085-2.132,1.525   L82.641,138.004z"/><path d="M17.779,81.083L14.847,80l3.828-1.414c0.368-0.858,0.771-1.705,1.249-2.525c1.02-1.741,2.272-3.312,3.693-4.702   L6.656,77.623C5.661,77.991,5,78.939,5,80s0.661,2.009,1.656,2.376l10.231,3.779C16.984,84.437,17.289,82.74,17.779,81.083z"/><path d="M47.424,136.424l4.048-23.616l-1.177-1.528c-0.817,0.153-1.649,0.23-2.485,0.23c-2.216,0-4.408-0.564-6.358-1.617   c-0.688,0.064-1.374,0.096-2.054,0.096c-0.198,0-0.392-0.02-0.589-0.025l-15.234,2.612l4.637-5.58   c-1.474-0.844-2.853-1.844-4.101-2.995l-8.819,10.611c-0.678,0.816-0.776,1.968-0.245,2.886s1.579,1.411,2.622,1.23l28.482-4.882   l-4.882,28.481c-0.18,1.046,0.312,2.092,1.23,2.623c0.919,0.531,2.071,0.433,2.886-0.245l18.686-15.529l-3.093-4.018   L47.424,136.424z"/><path d="M137.841,88.422c-0.608-7.044-2.311-16.135-4.804-25.591c-2.483-9.456-5.463-18.213-8.392-24.649   c-2.797-6.142-6.284-12.263-11.027-11.017c-2.341,0.618-3.537,2.666-4.064,5.402c-6.324,7.591-14.26,13.936-23.169,18.689   L80,33.966l-7.145,19.358L56.983,40.138l3.476,20.26l-0.162,0.041l-20.159-3.456l5.97,7.186l-6.699,1.764   c-2.615,0.679-4.662,2.534-5.645,4.976c-3.983,1.348-7.318,4.044-9.466,7.713c-2.351,4.034-3,8.736-1.814,13.257   c2.068,7.845,9.162,13.044,16.916,13.044c1.064,0,2.139-0.101,3.223-0.304c1.48,1.176,3.304,1.824,5.189,1.824   c0.72,0,1.449-0.091,2.169-0.284l2.301-0.608l5.858,7.611l-1.155,6.699l3.851-3.203l13.064,16.976   c0.699,0.902,1.743,1.378,2.818,1.378c0.598,0,1.206-0.152,1.753-0.466l6.517-3.709c2.159-1.236,3.669-3.334,4.155-5.777   c0.486-2.432-0.101-4.966-1.622-6.922l-3.111-4.044l2.736-7.419l15.872,13.186L99.53,99.53l20.331,3.486l-5.159-6.213   c4.135,0.72,8.189,1.753,12.112,3.111c1.652,2.199,3.507,3.689,5.625,3.689c0.395,0,0.811-0.061,1.226-0.162   C138.389,102.196,138.429,95.152,137.841,88.422z M29.345,90.074c-0.699-2.686-0.314-5.473,1.084-7.875   c0.578-0.993,1.307-1.865,2.159-2.595c0,6.294,1.632,12.517,4.723,17.99C33.571,96.824,30.389,94.017,29.345,90.074z    M82.189,123.672c-0.051,0.253-0.213,0.709-0.72,1.003l-3.831,2.179l-17.909-23.26l6.334-1.662l15.841,20.544   C82.27,122.943,82.24,123.429,82.189,123.672z M78.054,91.443l-1.612,0.426c-3.334-6.365-5.514-13.196-6.456-20.351   c-0.182-1.389-1.459-2.372-2.848-2.179c-1.378,0.182-2.362,1.449-2.179,2.838c0.973,7.368,3.162,14.412,6.476,21.01l-23.26,6.111   c-0.486,0.132-1.003-0.03-1.338-0.416c-5.939-6.831-8.402-16.206-6.588-25.074c0.101-0.497,0.466-0.882,0.963-1.014l29.331-7.713   c7.409-1.946,14.503-4.845,21.071-8.564c6.568-3.72,12.608-8.26,17.919-13.47c0.486,5.078,1.51,11.108,2.959,17.564   c0.01,0.02,0.01,0.041,0.01,0.061c0.527,2.321,1.105,4.703,1.743,7.095c0.628,2.412,1.297,4.764,1.976,7.054   c0.01,0.01,0.01,0.02,0.01,0.03c1.845,6.112,3.841,11.686,5.838,16.257C107.892,87.561,92.557,87.642,78.054,91.443z    M123.632,74.77c2.179-2.797,2.99-6.507,2.068-10.003c-0.922-3.507-3.456-6.345-6.72-7.703c-1.946-9.041-2.655-15.75-2.696-19.784   c2.544,4.612,6.324,13.743,9.892,27.355c3.578,13.611,4.774,23.422,4.824,28.693C129.054,89.791,126.378,83.588,123.632,74.77z"/></g><text x="0" y="175" fill="#8f9948" font-size="5px" font-weight="bold" font-family="'Helvetica Neue', Helvetica, Arial-Unicode, Arial, Sans-serif">Created by Symbolon</text><text x="0" y="180" fill="#000000" font-size="5px" font-weight="bold" font-family="'Helvetica Neue', Helvetica, Arial-Unicode, Arial, Sans-serif">from the Noun Project</text></svg>